<?xml version="1.0" encoding="UTF-8"?><svg xmlns="http://www.w3.org/2000/svg" viewBox="0 0 493.55 92.86"><defs><style>.g{fill:#fff;}.h{fill:#d35532;}.i{fill:#231f20;}</style></defs><g id="a"/><g id="b"><g id="c"><g id="d"><g id="e"><path class="i" d="M221.9,0l14.87,88.56-.52,2.74h-23.74l-1.57-14.61h-28.56l-7.56,14.61h-25.96l.65-2.74L199.73,0h22.17Zm-16.04,30.78l-14.22,27.39h17.87l-3.65-27.39Z"/><path class="i" d="M322.19,43.04c0,2.48-.26,5.09-.78,7.96l-8.09,40.3h-22.43l7.7-38.87c.26-1.3,.39-2.48,.39-3.52,0-5.48-3.26-8.61-9-8.61-7.43,0-13.04,4.83-14.61,12.52l-7.7,38.48h-22.3l13.83-69.13h20.48l-.65,6.78c5.74-5.35,12.91-8.09,21.39-8.09,13.83,0,21.78,8.48,21.78,22.17Z"/><path class="i" d="M394.04,22.17h19.69l-13.82,69.13h-18.13v-5.74c-6.26,4.56-13.83,7.17-22.17,7.17-17.35,0-28.69-11.87-28.69-28.96,0-2.74,.26-5.48,.91-8.48,4.17-21.13,19.69-34.56,39.39-34.56,8.74,0,15.78,2.87,20.61,7.96l2.22-6.52Zm-10.17,34.43c.26-1.43,.39-2.74,.39-4.04,0-7.3-4.57-12-11.87-12-8.61,0-16.04,6.39-18,15.91-.39,1.57-.52,3.13-.52,4.57,0,7.43,4.44,11.87,11.74,11.87,8.61,0,16.31-6.78,18.26-16.31Z"/><path class="h" d="M418.56,63.39c0-2.87,.26-6,.91-9.13,3.78-19.7,20.87-33.65,42.26-33.65,19.57,0,31.83,11.74,31.83,29.35,0,2.74-.26,5.61-.91,8.61-4.17,20.22-21,34.3-42.52,34.3-19.3,0-31.56-11.48-31.56-29.48Zm51.78-6.91c.26-1.3,.39-2.61,.39-3.78,0-7.17-4.44-11.48-11.61-11.48-8.61,0-15.52,6.13-17.48,15.65-.26,1.44-.39,2.74-.39,4.04,0,7.04,4.57,11.35,11.61,11.35,8.61,0,15.52-6.13,17.48-15.78Z"/></g><g id="f"><polygon class="h" points="73.67 42.88 16.93 42.88 0 16.85 56.74 16.85 73.67 42.88"/><polygon class="h" points="132.9 39.27 80.14 31.62 87.55 14.91 143.81 14.91 132.9 39.27"/><rect class="h" x="73.67" y="42.88" width="59.23" height="48.18"/><g><path class="h" d="M72.86,76.49c-8-.15-16.04-2.92-23.24-8l-6.4-4.52,7.33,2.77c7.46,2.82,15.06,4.25,22.57,4.25,.43,0,.86,0,1.3-.01,8.74-.19,15.47-2.23,19.08-3.32,1.54-.47,2.19-.66,2.66-.66,.64,0,1,.38,1.12,.74,.09,.25,.12,.65-.2,1.11-1.12,1.57-11.06,7.65-23.52,7.65h0c-.23,0-.46,0-.7,0Z"/><path class="g" d="M50.2,67.67c5.5,2.08,13.41,4.32,22.93,4.32,.44,0,.87,0,1.32-.01,11.95-.26,20.39-3.98,21.72-3.98,.1,0,.16,.02,.18,.07,.25,.73-9.91,7.44-22.78,7.44-.23,0-.46,0-.69,0-10.52-.2-18.52-4.88-22.68-7.82m-13.96-7.41l12.8,9.04c7.36,5.2,15.59,8.03,23.8,8.19,.24,0,.48,0,.72,0,12.78,0,22.99-6.19,24.33-8.07,.6-.85,.47-1.62,.34-2.01-.3-.86-1.11-1.42-2.07-1.42-.64,0-1.36,.22-2.95,.7-3.57,1.08-10.21,3.09-18.81,3.28-.43,0-.85,.01-1.27,.01-7.39,0-14.87-1.41-22.22-4.19l-14.66-5.54h0Z"/></g></g></g></g></g></svg>